<svg width="50" height="50" viewBox="0 0 50 50" fill="none" xmlns="http://www.w3.org/2000/svg">
<path d="M11.0944 36.6511L21.1064 13.2596C21.1966 13.0191 21.347 12.959 21.5875 12.959H28.3824C28.623 12.959 28.7432 13.0191 28.8635 13.2596L38.9356 36.6511C39.0258 36.8916 38.9056 37.0119 38.6651 37.0119H34.997C34.7565 37.0119 34.6663 36.9818 34.546 36.7714L32.2008 31.5098C32.1106 31.2693 31.9603 31.2091 31.7198 31.2091H18.3103C18.0697 31.2091 17.9495 31.2693 17.8292 31.5098L15.5141 36.7714C15.4239 36.9818 15.3037 37.0119 15.0631 37.0119H11.365C11.1245 37.042 11.0042 36.8916 11.0944 36.6511ZM19.8436 27.4208H30.0962C30.3969 27.4208 30.5472 27.2404 30.3969 26.9397L26.1876 17.048C26.0974 16.8375 25.9471 16.7473 25.7065 16.7473H24.2333C23.9928 16.7473 23.8424 16.8375 23.7522 17.048L19.543 26.9698C19.4227 27.2705 19.543 27.4208 19.8436 27.4208Z" fill="white"/>
<path d="M41.5514 49.9995H37.0415V48.1054H41.5514C45.1594 48.1054 48.1058 45.1589 48.1058 41.5509V37.041H50V41.5509C50 46.2112 46.2117 49.9995 41.5514 49.9995Z" fill="white"/>
<path d="M41.5514 0H37.0415V1.89417H41.5514C45.1594 1.89417 48.1058 4.84065 48.1058 8.44859V12.9585H50V8.44859C50 3.78833 46.2117 0 41.5514 0Z" fill="white"/>
<path d="M8.47865 49.9995H12.9886V48.1054H8.47865C4.87072 48.1054 1.92423 45.1589 1.92423 41.5509V37.041H0V41.5509C0 46.2112 3.78833 49.9995 8.47865 49.9995Z" fill="white"/>
<path d="M8.47865 0H12.9886V1.89417H8.47865C4.87072 1.89417 1.92423 4.84065 1.92423 8.44859V12.9585H0V8.44859C0 3.78833 3.78833 0 8.47865 0Z" fill="white"/>
</svg>
