<svg width="96" height="97" viewBox="0 0 96 97" fill="none" xmlns="http://www.w3.org/2000/svg">
<g filter="url(#filter0_d_1_397)">
<g clip-path="url(#clip0_1_397)">
<rect y="0.839844" width="96" height="96" rx="48" fill="white"/>
<rect opacity="0.999992" y="0.839844" width="96" height="96" rx="48" fill="#FFAF51"/>
<g clip-path="url(#clip1_1_397)">
<g clip-path="url(#clip2_1_397)">
<g clip-path="url(#clip3_1_397)">
<path fill-rule="evenodd" clip-rule="evenodd" d="M50.0152 68.4375C47.5165 68.6336 45.1535 67.0274 44.4819 64.5207L37.3992 38.0878C36.6411 35.2586 38.3227 32.3475 41.1508 31.5897L57.8737 27.1088C60.7018 26.351 63.6137 28.0313 64.3717 30.8605L71.4544 57.2934C72.1261 59.8001 70.8828 62.3726 68.6208 63.4521L68.8854 64.4395C69.0021 64.8751 68.9658 65.2846 68.7982 65.5867C68.6535 65.845 68.4188 66.0537 68.0466 66.1534L63.1916 67.4543C62.8193 67.554 62.5118 67.4906 62.2573 67.3393C61.9611 67.1615 61.7249 66.825 61.6082 66.3894L61.367 65.4892L57.3157 66.5747L57.5569 67.475C57.6737 67.9106 57.6374 68.32 57.4697 68.6222C57.325 68.8804 57.0904 69.0891 56.7182 69.1888L51.8631 70.4898C51.4909 70.5895 51.1834 70.5261 50.9289 70.3748C50.6326 70.197 50.3965 69.8605 50.2798 69.4249L50.0152 68.4375ZM67.301 63.8992L62.7102 65.1293L62.9515 66.0295C62.9551 66.0433 62.961 66.0597 62.9664 66.0747L67.5518 64.846C67.549 64.8304 67.5459 64.8132 67.5422 64.7994L67.301 63.8992ZM55.9725 66.9346L51.3818 68.1647L51.623 69.065C51.6267 69.0787 51.6325 69.0952 51.638 69.1101L56.2233 67.8815C56.2206 67.8658 56.2174 67.8487 56.2137 67.8349L55.9725 66.9346ZM50.3118 66.3726C50.4736 66.2752 50.6514 66.1997 50.8416 66.1487L55.4323 64.9186C55.667 64.8557 55.9046 64.8363 56.1346 64.8533C56.3254 64.7236 56.5409 64.6216 56.7755 64.5587L60.8268 63.4732C61.0615 63.4103 61.2991 63.3908 61.5291 63.4078C61.7199 63.2781 61.9354 63.1761 62.17 63.1132L66.7608 61.8832C66.9509 61.8322 67.1426 61.8087 67.3315 61.8122C67.4494 61.7183 67.5809 61.6372 67.7219 61.5699C69.0928 60.9143 69.8457 59.3545 69.4382 57.8337L62.3555 31.4007C61.8956 29.6843 60.1294 28.6652 58.4139 29.1248L41.691 33.6057C39.9755 34.0654 38.9555 35.8311 39.4154 37.5475L46.4981 63.9805C46.9056 65.5013 48.3375 66.4757 49.8526 66.358C50.0083 66.3458 50.1627 66.3503 50.3118 66.3726Z" fill="#3A3A41"/>
<path fill-rule="evenodd" clip-rule="evenodd" d="M64.3783 56.7781L65.0056 59.1194C65.1118 59.5154 64.8767 59.9229 64.4805 60.0291L51.8896 63.4028C51.4933 63.5089 51.086 63.2736 50.9799 62.8775L50.3526 60.5363C50.2465 60.1403 50.4815 59.7328 50.8778 59.6266L63.4687 56.2529C63.8649 56.1467 64.2722 56.3821 64.3783 56.7781ZM51.8641 60.8027L52.1557 61.8911L63.4941 58.853L63.2025 57.7645L51.8641 60.8027Z" fill="#3A3A41"/>
<path fill-rule="evenodd" clip-rule="evenodd" d="M50.1291 33.809C52.5106 33.1708 54.963 34.5867 55.6011 36.9682C56.2392 39.3497 54.8234 41.802 52.4419 42.4402C50.0604 43.0783 47.608 41.6624 46.9699 39.2809C46.3318 36.8994 47.7476 34.4471 50.1291 33.809ZM50.4892 35.1526C48.8492 35.592 47.8741 37.281 48.3135 38.9209C48.7529 40.5608 50.4419 41.536 52.0818 41.0966C53.7218 40.6572 54.6969 38.9681 54.2575 37.3282C53.8181 35.6883 52.1291 34.7131 50.4892 35.1526Z" fill="#3A3A41"/>
<path d="M33.0435 35.9702H25.3913" stroke="#3A3A41" stroke-width="1.37599" stroke-miterlimit="1.5" stroke-linecap="round" stroke-linejoin="round"/>
<path d="M36.9885 50.4751H29.3363" stroke="#3A3A41" stroke-width="1.32879" stroke-miterlimit="1.5" stroke-linecap="round" stroke-linejoin="round"/>
<path d="M40 64.4917H32.3478" stroke="#3A3A41" stroke-width="1.25285" stroke-miterlimit="1.5" stroke-linecap="round" stroke-linejoin="round"/>
</g>
</g>
</g>
</g>
</g>
<defs>
<filter id="filter0_d_1_397" x="-7.99892e-06" y="0.839836" width="96" height="96" filterUnits="userSpaceOnUse" color-interpolation-filters="sRGB">
<feFlood flood-opacity="0" result="BackgroundImageFix"/>
<feColorMatrix in="SourceAlpha" type="matrix" values="0 0 0 0 0 0 0 0 0 0 0 0 0 0 0 0 0 0 127 0" result="hardAlpha"/>
<feMorphology radius="7.99892e-06" operator="dilate" in="SourceAlpha" result="effect1_dropShadow_1_397"/>
<feOffset/>
<feComposite in2="hardAlpha" operator="out"/>
<feColorMatrix type="matrix" values="0 0 0 0 0.627451 0 0 0 0 0.635294 0 0 0 0 0.65098 0 0 0 1 0"/>
<feBlend mode="normal" in2="BackgroundImageFix" result="effect1_dropShadow_1_397"/>
<feBlend mode="normal" in="SourceGraphic" in2="effect1_dropShadow_1_397" result="shape"/>
</filter>
<clipPath id="clip0_1_397">
<rect y="0.839844" width="96" height="96" rx="48" fill="white"/>
</clipPath>
<clipPath id="clip1_1_397">
<rect width="48" height="48" fill="white" transform="translate(24 24.8398)"/>
</clipPath>
<clipPath id="clip2_1_397">
<rect width="48" height="48" fill="white" transform="translate(24 24.8398)"/>
</clipPath>
<clipPath id="clip3_1_397">
<rect width="48" height="48" fill="white" transform="translate(24 24.8398)"/>
</clipPath>
</defs>
</svg>
