<svg width="24" height="25" viewBox="0 0 24 25" fill="none" xmlns="http://www.w3.org/2000/svg">
<path d="M12 1.16016C5.64873 1.16016 0.5 6.30888 0.5 12.6602C0.5 19.0114 5.64873 24.1602 12 24.1602C18.3513 24.1602 23.5 19.0114 23.5 12.6602C23.5 6.30888 18.3513 1.16016 12 1.16016Z" stroke="#8C8C8C"/>
<path d="M13.4911 12.6602L10.1831 15.6847C9.93898 15.9078 9.93898 16.2696 10.1831 16.4928C10.4271 16.7159 10.8229 16.7159 11.0669 16.4928L14.8169 13.0642C15.061 12.8411 15.061 12.4793 14.8169 12.2561L11.0669 8.82752C10.8229 8.60437 10.4271 8.60437 10.1831 8.82752C9.93898 9.05068 9.93898 9.41249 10.1831 9.63565L13.4911 12.6602Z" fill="#8C8C8C"/>
</svg>
