<svg width="24" height="25" viewBox="0 0 24 25" fill="none" xmlns="http://www.w3.org/2000/svg">
<path d="M12 24.1602C18.3513 24.1602 23.5 19.0114 23.5 12.6602C23.5 6.30888 18.3513 1.16016 12 1.16016C5.64873 1.16016 0.5 6.30888 0.5 12.6602C0.5 19.0114 5.64873 24.1602 12 24.1602Z" stroke="#D1D1D1"/>
<path d="M10.5089 12.6602L13.8169 9.63565C14.061 9.41249 14.061 9.05068 13.8169 8.82752C13.5729 8.60437 13.1771 8.60437 12.9331 8.82752L9.18306 12.2561C8.93898 12.4793 8.93898 12.8411 9.18306 13.0642L12.9331 16.4928C13.1771 16.7159 13.5729 16.7159 13.8169 16.4928C14.061 16.2696 14.061 15.9078 13.8169 15.6847L10.5089 12.6602Z" fill="#D1D1D1"/>
</svg>
