<svg width="32" height="32" viewBox="0 0 32 32" fill="none" xmlns="http://www.w3.org/2000/svg">
<path d="M15.9997 27.5997C14.3997 27.5997 12.8944 27.294 11.4837 26.6824C10.0722 26.0717 8.84417 25.2441 7.79972 24.1997C6.75528 23.1553 5.92728 21.9273 5.31572 20.5157C4.70505 19.1051 4.39972 17.5997 4.39972 15.9997C4.39972 14.3997 4.70505 12.894 5.31572 11.4824C5.92728 10.0717 6.75528 8.84419 7.79972 7.79973C8.84417 6.75529 10.0722 5.92729 11.4837 5.31573C12.8944 4.70507 14.3997 4.39973 15.9997 4.39973C17.5997 4.39973 19.1055 4.70507 20.5171 5.31573C21.9277 5.92729 23.1553 6.75529 24.1997 7.79973C25.2441 8.84419 26.0721 10.0717 26.6837 11.4824C27.2944 12.894 27.5997 14.3997 27.5997 15.9997C27.5997 17.5997 27.2944 19.1051 26.6837 20.5157C26.0721 21.9273 25.2441 23.1553 24.1997 24.1997C23.1553 25.2441 21.9277 26.0717 20.5171 26.6824C19.1055 27.294 17.5997 27.5997 15.9997 27.5997ZM15.9997 26.6997C16.8441 25.6331 17.5331 24.5997 18.0664 23.5997C18.5997 22.5997 19.0331 21.4664 19.3664 20.1997H12.6331C13.0108 21.5553 13.4553 22.7331 13.9664 23.7331C14.4775 24.7331 15.1553 25.722 15.9997 26.6997ZM14.8331 26.5997C14.1441 25.8664 13.5108 24.9161 12.9331 23.7491C12.3553 22.5828 11.9331 21.3997 11.6664 20.1997H6.19972C6.99972 22.022 8.16639 23.4997 9.69972 24.6331C11.2331 25.7664 12.9442 26.422 14.8331 26.5997ZM17.1664 26.5997C19.0553 26.422 20.7664 25.7664 22.2997 24.6331C23.8331 23.4997 24.9997 22.022 25.7997 20.1997H20.3331C19.9553 21.422 19.4775 22.6161 18.8997 23.7824C18.322 24.9495 17.7441 25.8887 17.1664 26.5997ZM5.83305 19.2664H11.4664C11.3553 18.6887 11.2775 18.1277 11.2331 17.5837C11.1886 17.0388 11.1664 16.5108 11.1664 15.9997C11.1664 15.4887 11.1886 14.9607 11.2331 14.4157C11.2775 13.8717 11.3553 13.3109 11.4664 12.7331H5.83305C5.67751 13.1997 5.55528 13.722 5.46639 14.2997C5.37751 14.8775 5.33305 15.4441 5.33305 15.9997C5.33305 16.5553 5.37751 17.122 5.46639 17.6997C5.55528 18.2775 5.67751 18.7997 5.83305 19.2664ZM12.3997 19.2664H19.5997C19.7108 18.6887 19.7887 18.1384 19.8331 17.6157C19.8775 17.094 19.8997 16.5553 19.8997 15.9997C19.8997 15.4441 19.8775 14.9051 19.8331 14.3824C19.7887 13.8607 19.7108 13.3109 19.5997 12.7331H12.3997C12.2886 13.3109 12.2108 13.8607 12.1664 14.3824C12.1219 14.9051 12.0997 15.4441 12.0997 15.9997C12.0997 16.5553 12.1219 17.094 12.1664 17.6157C12.2108 18.1384 12.2886 18.6887 12.3997 19.2664ZM20.5331 19.2664H26.1664C26.322 18.7997 26.4441 18.2775 26.5331 17.6997C26.622 17.122 26.6664 16.5553 26.6664 15.9997C26.6664 15.4441 26.622 14.8775 26.5331 14.2997C26.4441 13.722 26.322 13.1997 26.1664 12.7331H20.5331C20.6441 13.3109 20.722 13.8717 20.7664 14.4157C20.8108 14.9607 20.8331 15.4887 20.8331 15.9997C20.8331 16.5108 20.8108 17.0388 20.7664 17.5837C20.722 18.1277 20.6441 18.6887 20.5331 19.2664ZM20.3331 11.7997H25.7997C24.9775 9.93307 23.8277 8.45529 22.3504 7.3664C20.8721 6.27752 19.1441 5.61085 17.1664 5.3664C17.8553 6.21085 18.4775 7.19973 19.0331 8.33307C19.5887 9.4664 20.022 10.622 20.3331 11.7997ZM12.6331 11.7997H19.3664C18.9887 10.4664 18.5277 9.27173 17.9837 8.21573C17.4388 7.16063 16.7775 6.18863 15.9997 5.29973C15.222 6.18863 14.5607 7.16063 14.0157 8.21573C13.4717 9.27173 13.0108 10.4664 12.6331 11.7997ZM6.19972 11.7997H11.6664C11.9775 10.622 12.4108 9.4664 12.9664 8.33307C13.522 7.19973 14.1441 6.21085 14.8331 5.3664C12.8331 5.61085 11.0997 6.28285 9.63305 7.3824C8.16639 8.48285 7.02195 9.95529 6.19972 11.7997Z" fill="black"/>
</svg>
