<svg width="69" height="18" viewBox="0 0 69 18" fill="none" xmlns="http://www.w3.org/2000/svg">
<path d="M18.3801 6.5H25.2531V7.84988H22.5506V15.4382H21.0645V7.84988H18.3741V6.5H18.3801ZM24.9594 8.96637H26.2298V10.2153H26.2537C26.2957 10.0387 26.3736 9.86839 26.4874 9.70439C26.6013 9.54038 26.7391 9.38269 26.9009 9.25022C27.0627 9.11145 27.2424 9.00422 27.4402 8.91591C27.6379 8.8339 27.8417 8.78975 28.0454 8.78975C28.2012 8.78975 28.315 8.79606 28.375 8.80236C28.4349 8.80867 28.4948 8.82129 28.5607 8.8276V10.2027C28.4648 10.1838 28.369 10.1712 28.2671 10.1586C28.1652 10.1459 28.0694 10.1396 27.9735 10.1396C27.7458 10.1396 27.5301 10.1901 27.3263 10.2847C27.1226 10.3793 26.9488 10.5244 26.799 10.7073C26.6492 10.8966 26.5294 11.1237 26.4395 11.4012C26.3496 11.6787 26.3077 11.9941 26.3077 12.3537V15.4319H24.9534V8.96637L24.9594 8.96637ZM34.7865 15.4382H33.4563V14.5362H33.4323C33.2645 14.8642 33.0189 15.1228 32.6893 15.3184C32.3597 15.5139 32.0242 15.6148 31.6826 15.6148C30.8737 15.6148 30.2865 15.4067 29.9269 14.9841C29.5674 14.5614 29.3876 13.9243 29.3876 13.0728V8.96637H30.7419V12.934C30.7419 13.5017 30.8437 13.9054 31.0534 14.1388C31.2572 14.3722 31.5508 14.492 31.9223 14.492C32.2099 14.492 32.4436 14.4479 32.6354 14.3533C32.8271 14.2587 32.9829 14.1388 33.0968 13.9811C33.2166 13.8297 33.3005 13.6405 33.3544 13.426C33.4084 13.2116 33.4323 12.9782 33.4323 12.7258V8.97268H34.7865V15.4382ZM37.0935 13.3629C37.1355 13.7793 37.2853 14.0694 37.5429 14.2397C37.8066 14.4037 38.1182 14.492 38.4837 14.492C38.6095 14.492 38.7533 14.4794 38.9151 14.4605C39.0769 14.4416 39.2327 14.3974 39.3705 14.3407C39.5143 14.2839 39.6282 14.1956 39.7241 14.082C39.814 13.9685 39.8559 13.8234 39.8499 13.6405C39.8439 13.4576 39.778 13.3062 39.6582 13.1926C39.5383 13.0728 39.3885 12.9845 39.2028 12.9088C39.017 12.8394 38.8073 12.7763 38.5676 12.7258C38.3279 12.6754 38.0882 12.6186 37.8425 12.5618C37.5909 12.5051 37.3452 12.4294 37.1115 12.3474C36.8778 12.2654 36.6681 12.1518 36.4823 12.0068C36.2966 11.868 36.1468 11.6851 36.0389 11.4643C35.9251 11.2435 35.8711 10.9723 35.8711 10.6443C35.8711 10.291 35.955 10.0009 36.1168 9.76116C36.2786 9.52146 36.4883 9.33222 36.734 9.18714C36.9857 9.04206 37.2613 8.94114 37.5669 8.87806C37.8725 8.82129 38.1661 8.78975 38.4418 8.78975C38.7593 8.78975 39.0649 8.8276 39.3526 8.89698C39.6402 8.96637 39.9038 9.07991 40.1375 9.24391C40.3712 9.40161 40.563 9.60977 40.7188 9.86208C40.8746 10.1144 40.9704 10.4235 41.0124 10.783H39.5982C39.5323 10.4424 39.3885 10.209 39.1548 10.0955C38.9211 9.97562 38.6515 9.91885 38.3519 9.91885C38.256 9.91885 38.1421 9.92516 38.0103 9.94408C37.8785 9.96301 37.7587 9.99455 37.6388 10.0387C37.525 10.0829 37.4291 10.1522 37.3452 10.2406C37.2673 10.3289 37.2254 10.4424 37.2254 10.5875C37.2254 10.7641 37.2853 10.9029 37.3991 11.0101C37.513 11.1173 37.6628 11.2057 37.8485 11.2813C38.0343 11.3507 38.244 11.4138 38.4837 11.4643C38.7234 11.5147 38.9691 11.5715 39.2207 11.6283C39.4664 11.6851 39.7061 11.7607 39.9458 11.8427C40.1855 11.9248 40.3952 12.0383 40.581 12.1834C40.7667 12.3285 40.9165 12.5051 41.0304 12.7195C41.1442 12.934 41.2041 13.2052 41.2041 13.5206C41.2041 13.9054 41.1202 14.2271 40.9525 14.4984C40.7847 14.7633 40.569 14.9841 40.3053 15.1481C40.0417 15.3121 39.7421 15.4382 39.4185 15.5139C39.0949 15.5896 38.7713 15.6275 38.4537 15.6275C38.0643 15.6275 37.7047 15.5833 37.3752 15.4887C37.0456 15.3941 36.758 15.2553 36.5183 15.0724C36.2786 14.8831 36.0868 14.6497 35.949 14.3722C35.8112 14.0946 35.7393 13.7603 35.7273 13.3756H37.0935V13.3629ZM41.5637 8.96637H42.5883V7.02355H43.9425V8.96637H45.1649V10.0324H43.9425V13.4891C43.9425 13.6405 43.9485 13.7666 43.9605 13.8802C43.9725 13.9874 44.0025 14.082 44.0444 14.1577C44.0864 14.2334 44.1523 14.2902 44.2421 14.328C44.332 14.3659 44.4459 14.3848 44.6017 14.3848C44.6976 14.3848 44.7934 14.3848 44.8893 14.3785C44.9852 14.3722 45.081 14.3596 45.1769 14.3343V15.4382C45.0271 15.4571 44.8773 15.4698 44.7395 15.4887C44.5957 15.5076 44.4519 15.5139 44.3021 15.5139C43.9425 15.5139 43.6549 15.4761 43.4392 15.4067C43.2235 15.3373 43.0497 15.2301 42.9299 15.0913C42.804 14.9525 42.7261 14.7822 42.6782 14.574C42.6363 14.3659 42.6063 14.1262 42.6003 13.8613V10.045H41.5756V8.96637H41.5637ZM46.1237 8.96637H47.406V9.84316H47.43C47.6217 9.46469 47.8854 9.19976 48.2269 9.03575C48.5685 8.87175 48.934 8.78975 49.3355 8.78975C49.8208 8.78975 50.2403 8.87806 50.5998 9.06099C50.9593 9.23761 51.2589 9.48361 51.4986 9.799C51.7383 10.1144 51.9121 10.4803 52.0319 10.8966C52.1518 11.3129 52.2117 11.7607 52.2117 12.2338C52.2117 12.6691 52.1578 13.0917 52.0499 13.4954C51.942 13.9054 51.7803 14.265 51.5645 14.5804C51.3488 14.8957 51.0732 15.1418 50.7376 15.331C50.4021 15.5202 50.0126 15.6148 49.5572 15.6148C49.3594 15.6148 49.1617 15.5959 48.964 15.5581C48.7662 15.5202 48.5745 15.4571 48.3947 15.3751C48.2149 15.2931 48.0412 15.1859 47.8914 15.0534C47.7356 14.921 47.6097 14.7696 47.5019 14.5993H47.4779V17.8289H46.1237V8.96637ZM50.8575 12.2086C50.8575 11.9184 50.8215 11.6346 50.7496 11.357C50.6777 11.0795 50.5699 10.8398 50.426 10.6253C50.2822 10.4109 50.1025 10.2406 49.8927 10.1144C49.677 9.98824 49.4313 9.91885 49.1557 9.91885C48.5865 9.91885 48.155 10.127 47.8674 10.5433C47.5798 10.9596 47.436 11.5147 47.436 12.2086C47.436 12.5366 47.4719 12.8394 47.5498 13.1169C47.6277 13.3945 47.7356 13.6342 47.8914 13.836C48.0412 14.0379 48.2209 14.1956 48.4307 14.3091C48.6404 14.429 48.8861 14.4857 49.1617 14.4857C49.4733 14.4857 49.731 14.4164 49.9467 14.2839C50.1624 14.1514 50.3362 13.9748 50.474 13.7666C50.6118 13.5522 50.7137 13.3125 50.7736 13.0412C50.8275 12.77 50.8575 12.4925 50.8575 12.2086ZM53.2483 6.5H54.6026V7.84988H53.2483V6.5ZM53.2483 8.96637H54.6026V15.4382H53.2483V8.96637ZM55.813 6.5H57.1672V15.4382H55.813V6.5ZM61.3198 15.6148C60.8284 15.6148 60.391 15.5265 60.0075 15.3562C59.624 15.1859 59.3004 14.9462 59.0308 14.6497C58.7671 14.347 58.5634 13.9874 58.4255 13.5711C58.2877 13.1548 58.2158 12.6943 58.2158 12.196C58.2158 11.704 58.2877 11.2498 58.4255 10.8335C58.5634 10.4172 58.7671 10.0576 59.0308 9.75485C59.2944 9.45207 59.624 9.21868 60.0075 9.04837C60.391 8.87806 60.8284 8.78975 61.3198 8.78975C61.8111 8.78975 62.2485 8.87806 62.632 9.04837C63.0155 9.21868 63.3391 9.45838 63.6088 9.75485C63.8724 10.0576 64.0761 10.4172 64.214 10.8335C64.3518 11.2498 64.4237 11.704 64.4237 12.196C64.4237 12.6943 64.3518 13.1548 64.214 13.5711C64.0761 13.9874 63.8724 14.347 63.6088 14.6497C63.3451 14.9525 63.0155 15.1859 62.632 15.3562C62.2485 15.5265 61.8111 15.6148 61.3198 15.6148ZM61.3198 14.4857C61.6194 14.4857 61.883 14.4164 62.1047 14.2839C62.3264 14.1514 62.5062 13.9748 62.65 13.7603C62.7938 13.5459 62.8957 13.2999 62.9676 13.0286C63.0335 12.7574 63.0695 12.4798 63.0695 12.196C63.0695 11.9184 63.0335 11.6472 62.9676 11.3697C62.9017 11.0921 62.7938 10.8524 62.65 10.6379C62.5062 10.4235 62.3264 10.2532 62.1047 10.1207C61.883 9.98824 61.6194 9.91885 61.3198 9.91885C61.0201 9.91885 60.7565 9.98824 60.5348 10.1207C60.3131 10.2532 60.1333 10.4298 59.9895 10.6379C59.8457 10.8524 59.7438 11.0921 59.6719 11.3697C59.606 11.6472 59.5701 11.9184 59.5701 12.196C59.5701 12.4798 59.606 12.7574 59.6719 13.0286C59.7378 13.2999 59.8457 13.5459 59.9895 13.7603C60.1333 13.9748 60.3131 14.1514 60.5348 14.2839C60.7565 14.4227 61.0201 14.4857 61.3198 14.4857ZM64.8192 8.96637H65.8438V7.02355H67.198V8.96637H68.4204V10.0324H67.198V13.4891C67.198 13.6405 67.204 13.7666 67.216 13.8802C67.228 13.9874 67.258 14.082 67.2999 14.1577C67.3419 14.2334 67.4078 14.2902 67.4976 14.328C67.5875 14.3659 67.7014 14.3848 67.8572 14.3848C67.9531 14.3848 68.0489 14.3848 68.1448 14.3785C68.2407 14.3722 68.3366 14.3596 68.4324 14.3343V15.4382C68.2826 15.4571 68.1328 15.4698 67.995 15.4887C67.8512 15.5076 67.7074 15.5139 67.5576 15.5139C67.198 15.5139 66.9104 15.4761 66.6947 15.4067C66.479 15.3373 66.3052 15.2301 66.1854 15.0913C66.0595 14.9525 65.9816 14.7822 65.9337 14.574C65.8918 14.3659 65.8618 14.1262 65.8558 13.8613V10.045H64.8312V8.96637L64.8192 8.96637Z" fill="white"/>
<path d="M16.7981 6.50079H10.5903L8.67279 0.28125L6.74932 6.50079L0.541458 6.49448L5.56887 10.3423L3.64539 16.5555L8.67279 12.714L13.6942 16.5555L11.7767 10.3423L16.7981 6.50079Z" fill="#00B67A"/>
<path d="M12.2082 11.7484L11.7767 10.3418L8.67279 12.7135L12.2082 11.7484Z" fill="#005128"/>
</svg>
