<svg width="100" height="19" viewBox="0 0 100 19" fill="none" xmlns="http://www.w3.org/2000/svg">
<path d="M0.00769043 18.9309H18.2964V0.660156H0.00769043V18.9309Z" fill="#00B67A"/>
<path d="M15.5983 8.43368L5.22517 15.9617L6.73881 11.3091L2.77655 8.43368H7.67411L9.18743 3.78076L10.7008 8.43368H15.5983ZM9.18781 13.0866L12.0207 12.4913L13.1494 15.9617L9.18781 13.0866Z" fill="white"/>
<path d="M20.218 18.9309H38.5067V0.660156H20.218V18.9309Z" fill="#00B67A"/>
<path d="M20.218 18.9309H29.3623V0.660156H20.218V18.9309Z" fill="#00B67A"/>
<path d="M29.5812 13.0153L32.0104 12.4909L33.134 16.0401L29.3244 13.1996L25.3662 16.0401L26.9025 11.3706L22.8806 8.48475H27.8518L29.3874 3.81494L30.9237 8.48475H35.8945L29.5812 13.0153Z" fill="white"/>
<path d="M40.4424 18.9309H58.7311V0.660156H40.4424V18.9309Z" fill="#00B67A"/>
<path d="M40.4424 18.9309H49.5867V0.660156H40.4424V18.9309Z" fill="#00B67A"/>
<path d="M56.0334 8.43368L45.6602 15.9617L47.1739 11.3091L43.2116 8.43368H48.1092L49.6225 3.78076L51.1358 8.43368L56.0334 8.43368ZM49.6229 13.0866L52.4558 12.4913L53.5845 15.9617L49.6229 13.0866Z" fill="white"/>
<path d="M60.6665 18.9309H78.9552V0.660156H60.6665V18.9309Z" fill="#00B67A"/>
<path d="M60.6665 18.9309H69.8109V0.660156H60.6665V18.9309Z" fill="#00B67A"/>
<path d="M76.2567 8.43368L65.8839 15.9617L67.3972 11.3091L63.4349 8.43368H68.3325L69.8458 3.78076L71.3591 8.43368L76.2567 8.43368ZM69.8462 13.0866L72.6791 12.4913L73.8078 15.9617L69.8462 13.0866Z" fill="white"/>
<path d="M80.8771 18.9309H99.1658V0.660156H80.8771V18.9309Z" fill="#00B67A"/>
<path d="M80.8771 18.9309H90.0214V0.660156H80.8771V18.9309Z" fill="#00B67A"/>
<path d="M96.4672 8.43368L86.0943 15.9617L87.6076 11.3091L83.6454 8.43368H88.5429L90.0563 3.78076L91.5696 8.43368H96.4672ZM90.0566 13.0866L92.8896 12.4913L94.0183 15.9617L90.0566 13.0866Z" fill="white"/>
</svg>
