<svg width="106" height="27" viewBox="0 0 106 27" fill="none" xmlns="http://www.w3.org/2000/svg">
<path d="M27.8261 9.65332H38.5461V11.6423H34.331V22.8233H32.0131V11.6423H27.8167V9.65332H27.8261ZM38.0881 13.2874H40.0695V15.1276H40.1069C40.1723 14.8674 40.2938 14.6165 40.4714 14.3748C40.649 14.1332 40.8639 13.9008 41.1163 13.7056C41.3686 13.5012 41.649 13.3431 41.9574 13.213C42.2658 13.0922 42.5836 13.0271 42.9014 13.0271C43.1444 13.0271 43.322 13.0364 43.4154 13.0457C43.5089 13.055 43.6023 13.0736 43.7051 13.0829V15.1091C43.5556 15.0812 43.4061 15.0626 43.2472 15.044C43.0883 15.0254 42.9388 15.0161 42.7892 15.0161C42.4341 15.0161 42.0976 15.0905 41.7798 15.2299C41.4621 15.3693 41.191 15.5831 40.9574 15.8526C40.7237 16.1314 40.5368 16.466 40.3966 16.875C40.2564 17.2839 40.191 17.7486 40.191 18.2784V22.814H38.0788V13.2874L38.0881 13.2874ZM53.4158 22.8233H51.3409V21.4942H51.3036C51.0419 21.9775 50.6587 22.3586 50.1446 22.6467C49.6306 22.9348 49.1072 23.0836 48.5745 23.0836C47.3128 23.0836 46.3968 22.7768 45.8361 22.1541C45.2753 21.5314 44.9949 20.5927 44.9949 19.338V13.2874H47.1071V19.1335C47.1071 19.97 47.266 20.5648 47.5931 20.9087C47.9109 21.2526 48.3689 21.4292 48.9483 21.4292C49.397 21.4292 49.7615 21.3641 50.0605 21.2247C50.3596 21.0853 50.6026 20.9087 50.7802 20.6763C50.9671 20.4533 51.0979 20.1744 51.1821 19.8584C51.2662 19.5424 51.3036 19.1985 51.3036 18.8268V13.2967H53.4158V22.8233ZM57.0141 19.7655C57.0795 20.3789 57.3131 20.8065 57.715 21.0574C58.1262 21.299 58.6122 21.4292 59.1824 21.4292C59.3786 21.4292 59.6029 21.4106 59.8553 21.3827C60.1076 21.3548 60.3506 21.2898 60.5656 21.2061C60.7899 21.1225 60.9675 20.9923 61.117 20.825C61.2572 20.6577 61.3226 20.444 61.3133 20.1744C61.3039 19.9049 61.2011 19.6818 61.0142 19.5145C60.8273 19.338 60.5936 19.2078 60.3039 19.0963C60.0142 18.9941 59.687 18.9011 59.3132 18.8268C58.9394 18.7524 58.5655 18.6688 58.1823 18.5851C57.7898 18.5015 57.4066 18.3899 57.0421 18.2691C56.6776 18.1483 56.3505 17.981 56.0607 17.7672C55.771 17.5627 55.5374 17.2932 55.3691 16.9679C55.1916 16.6426 55.1074 16.243 55.1074 15.7597C55.1074 15.2392 55.2383 14.8116 55.4906 14.4585C55.743 14.1053 56.0701 13.8265 56.4533 13.6127C56.8458 13.3989 57.2757 13.2502 57.7524 13.1573C58.2291 13.0736 58.687 13.0271 59.1169 13.0271C59.6123 13.0271 60.0889 13.0829 60.5375 13.1851C60.9862 13.2874 61.3974 13.4547 61.7619 13.6963C62.1264 13.9287 62.4255 14.2354 62.6685 14.6072C62.9115 14.9789 63.061 15.4344 63.1264 15.9641H60.9207C60.8179 15.4622 60.5936 15.1184 60.2291 14.9511C59.8646 14.7745 59.4441 14.6908 58.9767 14.6908C58.8272 14.6908 58.6496 14.7001 58.444 14.728C58.2384 14.7559 58.0515 14.8024 57.8645 14.8674C57.687 14.9325 57.5374 15.0347 57.4066 15.1648C57.2851 15.2949 57.2197 15.4622 57.2197 15.676C57.2197 15.9363 57.3131 16.1407 57.4907 16.2987C57.6683 16.4567 57.9019 16.5869 58.1917 16.6984C58.4814 16.8006 58.8085 16.8936 59.1824 16.9679C59.5562 17.0423 59.9394 17.1259 60.3319 17.2096C60.7151 17.2932 61.089 17.4047 61.4628 17.5256C61.8367 17.6464 62.1638 17.8137 62.4535 18.0275C62.7432 18.2412 62.9769 18.5015 63.1545 18.8175C63.332 19.1335 63.4255 19.5331 63.4255 19.9978C63.4255 20.5648 63.2947 21.0388 63.033 21.4385C62.7713 21.8288 62.4348 22.1541 62.0236 22.3958C61.6124 22.6374 61.145 22.8233 60.6404 22.9348C60.1357 23.0464 59.631 23.1021 59.1356 23.1021C58.5281 23.1021 57.9674 23.0371 57.4533 22.8977C56.9393 22.7583 56.4907 22.5538 56.1168 22.2842C55.743 22.0054 55.4439 21.6615 55.2289 21.2526C55.014 20.8436 54.9018 20.351 54.8831 19.7841H57.0141V19.7655ZM63.9863 13.2874H65.5845V10.4247H67.6967V13.2874H69.6033V14.8581H67.6967V19.9514C67.6967 20.1744 67.706 20.3603 67.7247 20.5276C67.7434 20.6856 67.7902 20.825 67.8556 20.9366C67.921 21.0481 68.0238 21.1318 68.164 21.1875C68.3042 21.2433 68.4818 21.2712 68.7248 21.2712C68.8743 21.2712 69.0238 21.2712 69.1734 21.2619C69.3229 21.2526 69.4725 21.234 69.622 21.1968V22.8233C69.3883 22.8512 69.1547 22.8698 68.9397 22.8977C68.7154 22.9255 68.4911 22.9348 68.2575 22.9348C67.6967 22.9348 67.2481 22.8791 66.9116 22.7768C66.5752 22.6746 66.3041 22.5166 66.1172 22.3121C65.9209 22.1076 65.7994 21.8567 65.7247 21.55C65.6592 21.2433 65.6125 20.8901 65.6032 20.4997V14.8767H64.005V13.2874H63.9863ZM71.0987 13.2874H73.0988V14.5793H73.1361C73.4352 14.0216 73.8465 13.6313 74.3792 13.3896C74.9119 13.148 75.482 13.0271 76.1082 13.0271C76.8653 13.0271 77.5195 13.1573 78.0803 13.4268C78.641 13.687 79.1083 14.0495 79.4822 14.5142C79.856 14.9789 80.1271 15.518 80.314 16.1314C80.5009 16.7449 80.5944 17.4047 80.5944 18.1018C80.5944 18.7431 80.5102 19.3658 80.342 19.9607C80.1738 20.5648 79.9214 21.0946 79.585 21.5593C79.2485 22.024 78.8186 22.3865 78.2952 22.6653C77.7718 22.9441 77.1643 23.0835 76.454 23.0835C76.1456 23.0835 75.8372 23.0557 75.5288 22.9999C75.2203 22.9441 74.9213 22.8512 74.6409 22.7304C74.3605 22.6095 74.0894 22.4515 73.8558 22.2564C73.6128 22.0612 73.4165 21.8381 73.2483 21.5872H73.2109V26.3458H71.0987V13.2874ZM78.4821 18.0646C78.4821 17.6371 78.4261 17.2189 78.3139 16.8099C78.2018 16.401 78.0335 16.0478 77.8092 15.7318C77.5849 15.4158 77.3045 15.1648 76.9774 14.9789C76.6409 14.7931 76.2578 14.6908 75.8278 14.6908C74.94 14.6908 74.267 14.9975 73.8184 15.611C73.3698 16.2244 73.1455 17.0423 73.1455 18.0646C73.1455 18.5479 73.2016 18.9941 73.3231 19.403C73.4446 19.812 73.6128 20.1651 73.8558 20.4626C74.0894 20.76 74.3698 20.9923 74.697 21.1596C75.0241 21.3362 75.4073 21.4199 75.8372 21.4199C76.3232 21.4199 76.7251 21.3176 77.0615 21.1225C77.398 20.9273 77.669 20.667 77.884 20.3603C78.0989 20.0443 78.2578 19.6911 78.3513 19.2915C78.4354 18.8918 78.4821 18.4829 78.4821 18.0646ZM82.2113 9.65332H84.3235V11.6423H82.2113V9.65332ZM82.2113 13.2874H84.3235V22.8233H82.2113V13.2874ZM86.2114 9.65332H88.3236V22.8233H86.2114V9.65332ZM94.8005 23.0835C94.0341 23.0835 93.3519 22.9534 92.7537 22.7025C92.1555 22.4515 91.6509 22.0984 91.2303 21.6615C90.819 21.2154 90.5013 20.6856 90.2863 20.0722C90.0713 19.4588 89.9592 18.7803 89.9592 18.0461C89.9592 17.3211 90.0713 16.6519 90.2863 16.0385C90.5013 15.4251 90.819 14.8953 91.2303 14.4492C91.6415 14.003 92.1555 13.6592 92.7537 13.4082C93.3519 13.1573 94.0341 13.0271 94.8005 13.0271C95.5669 13.0271 96.2492 13.1573 96.8473 13.4082C97.4455 13.6592 97.9501 14.0123 98.3707 14.4492C98.782 14.8953 99.0997 15.4251 99.3147 16.0385C99.5296 16.6519 99.6418 17.3211 99.6418 18.0461C99.6418 18.7803 99.5296 19.4588 99.3147 20.0722C99.0997 20.6856 98.782 21.2154 98.3707 21.6615C97.9595 22.1077 97.4455 22.4515 96.8473 22.7025C96.2492 22.9534 95.5669 23.0835 94.8005 23.0835ZM94.8005 21.4199C95.2678 21.4199 95.679 21.3176 96.0248 21.1225C96.3707 20.9273 96.651 20.667 96.8753 20.351C97.0996 20.035 97.2585 19.6726 97.3707 19.2729C97.4735 18.8732 97.5296 18.4643 97.5296 18.0461C97.5296 17.6371 97.4735 17.2374 97.3707 16.8285C97.2679 16.4196 97.0997 16.0664 96.8753 15.7504C96.651 15.4344 96.3707 15.1834 96.0248 14.9882C95.679 14.7931 95.2678 14.6908 94.8005 14.6908C94.3332 14.6908 93.922 14.7931 93.5762 14.9882C93.2304 15.1834 92.95 15.4437 92.7257 15.7504C92.5013 16.0664 92.3425 16.4196 92.2303 16.8285C92.1275 17.2375 92.0714 17.6371 92.0714 18.0461C92.0714 18.4643 92.1275 18.8732 92.2303 19.2729C92.3331 19.6726 92.5013 20.035 92.7257 20.351C92.95 20.667 93.2304 20.9273 93.5762 21.1225C93.922 21.3269 94.3332 21.4199 94.8005 21.4199ZM100.259 13.2874H101.857V10.4247H103.969V13.2874H105.876V14.8581H103.969V19.9514C103.969 20.1744 103.978 20.3603 103.997 20.5276C104.016 20.6856 104.063 20.825 104.128 20.9366C104.193 21.0481 104.296 21.1318 104.436 21.1875C104.577 21.2433 104.754 21.2712 104.997 21.2712C105.147 21.2712 105.296 21.2712 105.446 21.2619C105.595 21.2526 105.745 21.234 105.894 21.1968V22.8233C105.661 22.8512 105.427 22.8698 105.212 22.8977C104.988 22.9255 104.763 22.9348 104.53 22.9348C103.969 22.9348 103.52 22.8791 103.184 22.7768C102.848 22.6746 102.576 22.5166 102.39 22.3121C102.193 22.1076 102.072 21.8567 101.997 21.55C101.932 21.2433 101.885 20.8901 101.876 20.4997V14.8767H100.277V13.2874L100.259 13.2874Z" fill="#191919"/>
<path d="M25.3586 9.65342H15.676L12.6853 0.489258L9.68517 9.65341L0.00256348 9.64412L7.84398 15.3136L4.84386 24.4685L12.6853 18.8083L20.5173 24.4685L17.5266 15.3136L25.3586 9.65342Z" fill="#00B67A"/>
<path d="M18.1995 17.3859L17.5266 15.3135L12.6853 18.8079L18.1995 17.3859Z" fill="#005128"/>
</svg>
