<svg width="101" height="20" viewBox="0 0 101 20" fill="none" xmlns="http://www.w3.org/2000/svg">
<path d="M0.558716 19.331H19.0207V0.889648H0.558716V19.331Z" fill="#73CF11"/>
<path d="M16.2971 8.73543L5.82565 16.3338L7.35363 11.6377L3.35382 8.73543H8.29779L9.82545 4.03906L11.3531 8.73543H16.2971ZM9.82584 13.4318L12.6856 12.8309L13.825 16.3338L9.82584 13.4318Z" fill="white"/>
<path d="M20.9605 19.331H39.4225V0.889648H20.9605V19.331Z" fill="#73CF11"/>
<path d="M20.9605 19.331H30.1915V0.889648H20.9605V19.331Z" fill="#73CF11"/>
<path d="M30.4125 13.3605L32.8647 12.8312L33.9989 16.4136L30.1532 13.5465L26.1575 16.4136L27.7084 11.7005L23.6484 8.78764H28.6666L30.2168 4.07422L31.7677 8.78764H36.7856L30.4125 13.3605Z" fill="white"/>
<path d="M41.3766 19.331H59.8386V0.889648H41.3766V19.331Z" fill="#73CF11"/>
<path d="M41.3766 19.331H50.6076V0.889648H41.3766V19.331Z" fill="#73CF11"/>
<path d="M57.1153 8.73543L46.6438 16.3338L48.1718 11.6377L44.172 8.73543H49.116L50.6436 4.03906L52.1713 8.73543L57.1153 8.73543ZM50.644 13.4318L53.5038 12.8309L54.6432 16.3338L50.644 13.4318Z" fill="white"/>
<path d="M61.7923 19.331H80.2543V0.889648H61.7923V19.331Z" fill="#73CF11"/>
<path d="M61.7923 19.331H71.0233V0.889648H61.7923V19.331Z" fill="#73CF11"/>
<path d="M77.5303 8.73543L67.0591 16.3338L68.5868 11.6377L64.587 8.73543H69.531L71.0586 4.03906L72.5863 8.73543L77.5303 8.73543ZM71.059 13.4318L73.9188 12.8309L75.0582 16.3338L71.059 13.4318Z" fill="white"/>
<path d="M82.1944 19.331H100.656V0.889648H82.1944V19.331Z" fill="#DCDCE6"/>
<path d="M82.1944 19.331H91.4254V0.889648H82.1944V19.331Z" fill="#DCDCE6"/>
<path d="M97.9323 8.73543L87.4611 16.3338L88.9888 11.6377L84.989 8.73543H89.933L91.4606 4.03906L92.9883 8.73543H97.9323ZM91.461 13.4318L94.3208 12.8309L95.4602 16.3338L91.461 13.4318Z" fill="white"/>
</svg>
