<svg width="100" height="19" viewBox="0 0 100 19" fill="none" xmlns="http://www.w3.org/2000/svg">
<path d="M0.757721 18.9309H19.0464V0.660156H0.757721V18.9309Z" fill="#73CF11"/>
<path d="M16.3484 8.43368L5.9752 15.9617L7.48884 11.3091L3.52658 8.43368H8.42414L9.93747 3.78076L11.4508 8.43368H16.3484ZM9.93784 13.0866L12.7708 12.4913L13.8995 15.9617L9.93784 13.0866Z" fill="white"/>
<path d="M20.968 18.9309H39.2567V0.660156H20.968V18.9309Z" fill="#73CF11"/>
<path d="M20.968 18.9309H30.1123V0.660156H20.968V18.9309Z" fill="#73CF11"/>
<path d="M30.3312 13.0153L32.7605 12.4909L33.884 16.0401L30.0744 13.1996L26.1162 16.0401L27.6525 11.3706L23.6306 8.48475H28.6018L30.1374 3.81494L31.6737 8.48475H36.6446L30.3312 13.0153Z" fill="white"/>
<path d="M41.1924 18.9309H59.4811V0.660156H41.1924V18.9309Z" fill="#73CF11"/>
<path d="M41.1924 18.9309H50.3368V0.660156H41.1924V18.9309Z" fill="#73CF11"/>
<path d="M56.7834 8.43368L46.4102 15.9617L47.9239 11.3091L43.9616 8.43368H48.8592L50.3725 3.78076L51.8858 8.43368L56.7834 8.43368ZM50.3729 13.0866L53.2058 12.4913L54.3345 15.9617L50.3729 13.0866Z" fill="white"/>
<path d="M61.4165 18.9309H79.7052V0.660156H61.4165V18.9309Z" fill="#73CF11"/>
<path d="M61.4165 18.9309H70.5609V0.660156H61.4165V18.9309Z" fill="#73CF11"/>
<path d="M77.0067 8.43368L66.6339 15.9617L68.1472 11.3091L64.185 8.43368H69.0825L70.5959 3.78076L72.1092 8.43368L77.0067 8.43368ZM70.5962 13.0866L73.4292 12.4913L74.5579 15.9617L70.5962 13.0866Z" fill="white"/>
<path d="M81.6271 18.9309H99.9158V0.660156H81.6271V18.9309Z" fill="#DCDCE6"/>
<path d="M81.6271 18.9309H90.7715V0.660156H81.6271V18.9309Z" fill="#DCDCE6"/>
<path d="M97.2172 8.43368L86.8444 15.9617L88.3577 11.3091L84.3954 8.43368H89.293L90.8063 3.78076L92.3197 8.43368H97.2172ZM90.8067 13.0866L93.6396 12.4913L94.7683 15.9617L90.8067 13.0866Z" fill="white"/>
</svg>
