<svg width="163" height="31" viewBox="0 0 163 31" fill="none" xmlns="http://www.w3.org/2000/svg">
<path d="M0.00476074 30.5632H29.9347V0.660156H0.00476074V30.5632Z" fill="#73CF11"/>
<path d="M25.5192 13.3828L8.5433 25.7037L11.0204 18.0889L4.53607 13.3828H12.551L15.0276 5.76758L17.5042 13.3828H25.5192ZM15.0282 20.9981L19.6644 20.0237L21.5116 25.7037L15.0282 20.9981Z" fill="white"/>
<path d="M33.0793 30.5632H63.0092V0.660156H33.0793V30.5632Z" fill="#73CF11"/>
<path d="M33.0793 30.5632H48.0443V0.660156H33.0793V30.5632Z" fill="#73CF11"/>
<path d="M48.4025 20.8817L52.378 20.0233L54.2167 25.8322L47.9822 21.1833L41.5045 25.8322L44.0187 18.1898L37.4368 13.4666H45.5722L48.0853 5.82373L50.5995 13.4666H58.7344L48.4025 20.8817Z" fill="white"/>
<path d="M66.1771 30.5632H96.107V0.660156H66.1771V30.5632Z" fill="#73CF11"/>
<path d="M66.1771 30.5632H81.142V0.660156H66.1771V30.5632Z" fill="#73CF11"/>
<path d="M91.692 13.3828L74.7161 25.7037L77.1933 18.0889L70.7089 13.3828H78.7239L81.2005 5.76758L83.6771 13.3828L91.692 13.3828ZM81.2011 20.9981L85.8372 20.0237L87.6844 25.7037L81.2011 20.9981Z" fill="white"/>
<path d="M99.2742 30.5632H129.204V0.660156H99.2742V30.5632Z" fill="#73CF11"/>
<path d="M99.2742 30.5632H114.239V0.660156H99.2742V30.5632Z" fill="#73CF11"/>
<path d="M124.788 13.3828L107.813 25.7037L110.289 18.0889L103.805 13.3828H111.82L114.296 5.76758L116.773 13.3828L124.788 13.3828ZM114.297 20.9981L118.933 20.0237L120.78 25.7037L114.297 20.9981Z" fill="white"/>
<path d="M132.349 30.5632H162.279V0.660156H132.349V30.5632Z" fill="#DCDCE6"/>
<path d="M132.349 30.5632H147.314V0.660156H132.349V30.5632Z" fill="#DCDCE6"/>
<path d="M157.863 13.3828L140.888 25.7037L143.364 18.0889L136.88 13.3828H144.895L147.371 5.76758L149.848 13.3828H157.863ZM147.372 20.9981L152.008 20.0237L153.855 25.7037L147.372 20.9981Z" fill="white"/>
</svg>
