<svg width="128" height="56" viewBox="0 0 128 56" fill="none" xmlns="http://www.w3.org/2000/svg">
<path d="M20.6074 36.8104L28.1786 19.1214C28.2469 18.9395 28.3605 18.894 28.5424 18.894H33.6809C33.8628 18.894 33.9537 18.9395 34.0447 19.1214L41.6614 36.8104C41.7296 36.9923 41.6387 37.0832 41.4568 37.0832H38.6829C38.501 37.0832 38.4328 37.0605 38.3419 36.9013L36.5684 32.9225C36.5002 32.7406 36.3865 32.6951 36.2046 32.6951H26.0641C25.8823 32.6951 25.7913 32.7406 25.7004 32.9225L23.9497 36.9241C23.8814 37.0832 23.7905 37.106 23.6086 37.106H20.812C20.6301 37.106 20.5164 36.9923 20.6074 36.8104ZM27.2237 29.8303H34.9769C35.2042 29.8303 35.3179 29.6939 35.2042 29.4665L32.0211 21.9862C31.9529 21.827 31.8392 21.7588 31.6573 21.7588H30.5432C30.3613 21.7588 30.2477 21.827 30.1795 21.9862L26.9963 29.4665C26.9054 29.7166 26.9963 29.8303 27.2237 29.8303Z" fill="black"/>
<path d="M49.3691 36.7877V19.2123C49.3691 19.0077 49.46 18.9168 49.6647 18.9168H52.1202C52.3248 18.9168 52.4158 19.0077 52.4158 19.2123V36.7877C52.4158 36.9923 52.3248 37.0832 52.1202 37.0832H49.6647C49.46 37.106 49.3691 36.9923 49.3691 36.7877Z" fill="black"/>
<path d="M62.0106 36.7877V19.2123C62.0106 19.0077 62.1015 18.9168 62.3061 18.9168H73.447C76.9484 18.9168 79.5177 21.0313 79.5177 24.3735C79.5177 26.3516 78.5173 27.9659 76.8348 28.8526C76.5619 29.0118 76.5847 29.2846 76.8348 29.3983C78.4491 30.0804 78.881 30.9671 78.881 32.445V36.8104C78.881 37.015 78.7901 37.106 78.5855 37.106H76.1299C75.9253 37.106 75.8344 37.015 75.8344 36.8104V33.3999C75.8344 31.7174 74.8339 30.6715 72.8104 30.6715H65.3983C65.2164 30.6715 65.1027 30.7625 65.1027 30.9671V36.8104C65.1027 37.015 65.0118 37.106 64.8072 37.106H62.3516C62.1015 37.106 62.0106 36.9923 62.0106 36.7877ZM65.3528 27.8067H72.9923C74.9476 27.8067 76.2891 26.7154 76.2891 24.7828C76.2891 22.8729 74.9704 21.7816 72.9923 21.7816H65.3528C65.1709 21.7816 65.0572 21.8725 65.0572 22.0771V27.5112C65.0572 27.6931 65.1937 27.8067 65.3528 27.8067Z" fill="black"/>
<path d="M86.3614 36.8104L93.9326 19.1214C94.0008 18.9395 94.1145 18.894 94.2964 18.894H99.4348C99.6167 18.894 99.7077 18.9395 99.7986 19.1214L107.415 36.8104C107.484 36.9923 107.393 37.0832 107.211 37.0832H104.437C104.255 37.0832 104.187 37.0605 104.096 36.9013L102.322 32.9224C102.254 32.7406 102.14 32.6951 101.959 32.6951H91.8181C91.6362 32.6951 91.5453 32.7406 91.4543 32.9224L89.7036 36.9013C89.6354 37.0605 89.5445 37.0832 89.3626 37.0832H86.566C86.3841 37.106 86.2704 36.9923 86.3614 36.8104ZM92.9777 29.8303H100.731C100.958 29.8303 101.072 29.6939 100.958 29.4665L97.7751 21.9862C97.7069 21.827 97.5932 21.7588 97.4113 21.7588H96.2972C96.1153 21.7588 96.0016 21.827 95.9334 21.9862L92.7503 29.4665C92.6366 29.7166 92.7503 29.8303 92.9777 29.8303Z" fill="black"/>
</svg>
