<svg width="24" height="25" viewBox="0 0 24 25" fill="none" xmlns="http://www.w3.org/2000/svg">
<g clip-path="url(#clip0_1_619)">
<g clip-path="url(#clip1_1_619)">
<path d="M23.3318 6.95229C23.1091 5.72724 22.051 4.83629 20.826 4.55786C18.9884 4.16807 15.5916 3.88965 11.9165 3.88965C8.2413 3.88965 4.78886 4.16807 2.95128 4.55786C1.72622 4.83629 0.668213 5.67155 0.445476 6.95229C0.222738 8.34441 0 10.2934 0 12.7991C0 15.3049 0.222738 17.2539 0.50116 18.646C0.723898 19.871 1.7819 20.762 3.00696 21.0404C4.95592 21.4302 8.29698 21.7086 11.9722 21.7086C15.6473 21.7086 18.9884 21.4302 20.9374 21.0404C22.1624 20.762 23.2204 19.9267 23.4432 18.646C23.6659 17.2539 23.9443 15.2492 24 12.7991C23.8886 10.2934 23.6102 8.34441 23.3318 6.95229ZM8.90951 16.697V8.90125L15.703 12.7991L8.90951 16.697Z" fill="white"/>
</g>
</g>
<defs>
<clipPath id="clip0_1_619">
<rect width="24" height="24" fill="white" transform="translate(0 0.889648)"/>
</clipPath>
<clipPath id="clip1_1_619">
<rect width="24" height="24" fill="white" transform="translate(0 0.889648)"/>
</clipPath>
</defs>
</svg>
