<svg width="17" height="17" viewBox="0 0 17 17" fill="none" xmlns="http://www.w3.org/2000/svg">
<path d="M8.82988 14.5795C8.02988 14.5795 7.27721 14.4266 6.57188 14.1208C5.8661 13.8155 5.2521 13.4017 4.72988 12.8795C4.20766 12.3573 3.79366 11.7433 3.48788 11.0375C3.18254 10.3322 3.02988 9.57949 3.02988 8.77949C3.02988 7.97949 3.18254 7.22661 3.48788 6.52083C3.79366 5.81549 4.20766 5.20172 4.72988 4.67949C5.2521 4.15727 5.8661 3.74327 6.57188 3.43749C7.27721 3.13216 8.02988 2.97949 8.82988 2.97949C9.62988 2.97949 10.3827 3.13216 11.0885 3.43749C11.7939 3.74327 12.4077 4.15727 12.9299 4.67949C13.4521 5.20172 13.8661 5.81549 14.1719 6.52083C14.4772 7.22661 14.6299 7.97949 14.6299 8.77949C14.6299 9.57949 14.4772 10.3322 14.1719 11.0375C13.8661 11.7433 13.4521 12.3573 12.9299 12.8795C12.4077 13.4017 11.7939 13.8155 11.0885 14.1208C10.3827 14.4266 9.62988 14.5795 8.82988 14.5795ZM8.82988 14.1295C9.25208 13.5962 9.59654 13.0795 9.86321 12.5795C10.1299 12.0795 10.3465 11.5128 10.5132 10.8795H7.14654C7.33544 11.5573 7.55768 12.1462 7.81321 12.6462C8.06874 13.1462 8.40768 13.6406 8.82988 14.1295ZM8.24654 14.0795C7.90208 13.7128 7.58541 13.2377 7.29654 12.6542C7.00766 12.071 6.79654 11.4795 6.66321 10.8795H3.92988C4.32988 11.7906 4.91321 12.5295 5.67988 13.0962C6.44654 13.6628 7.3021 13.9906 8.24654 14.0795ZM9.41321 14.0795C10.3577 13.9906 11.2132 13.6628 11.9799 13.0962C12.7465 12.5295 13.3299 11.7906 13.7299 10.8795H10.9965C10.8077 11.4906 10.5687 12.0877 10.2799 12.6708C9.99101 13.2544 9.70208 13.724 9.41321 14.0795ZM3.74654 10.4128H6.56321C6.50766 10.124 6.46877 9.84349 6.44654 9.57149C6.42432 9.29903 6.41321 9.03503 6.41321 8.77949C6.41321 8.52396 6.42432 8.25996 6.44654 7.98749C6.46877 7.71549 6.50766 7.43505 6.56321 7.14616H3.74654C3.66877 7.37949 3.60766 7.64063 3.56321 7.92949C3.51877 8.21836 3.49654 8.50169 3.49654 8.77949C3.49654 9.05729 3.51877 9.34063 3.56321 9.62949C3.60766 9.91836 3.66877 10.1795 3.74654 10.4128ZM7.02988 10.4128H10.6299C10.6854 10.124 10.7243 9.84883 10.7465 9.58749C10.7687 9.32663 10.7799 9.05729 10.7799 8.77949C10.7799 8.50169 10.7687 8.23216 10.7465 7.97083C10.7243 7.70996 10.6854 7.43505 10.6299 7.14616H7.02988C6.97432 7.43505 6.93544 7.70996 6.91321 7.97083C6.89099 8.23216 6.87988 8.50169 6.87988 8.77949C6.87988 9.05729 6.89099 9.32663 6.91321 9.58749C6.93544 9.84883 6.97432 10.124 7.02988 10.4128ZM11.0965 10.4128H13.9132C13.991 10.1795 14.0521 9.91836 14.0965 9.62949C14.141 9.34063 14.1632 9.05729 14.1632 8.77949C14.1632 8.50169 14.141 8.21836 14.0965 7.92949C14.0521 7.64063 13.991 7.37949 13.9132 7.14616H11.0965C11.1521 7.43505 11.191 7.71549 11.2132 7.98749C11.2354 8.25996 11.2465 8.52396 11.2465 8.77949C11.2465 9.03503 11.2354 9.29903 11.2132 9.57149C11.191 9.84349 11.1521 10.124 11.0965 10.4128ZM10.9965 6.67949H13.7299C13.3187 5.74616 12.7439 5.00727 12.0052 4.46283C11.2661 3.91839 10.4021 3.58505 9.41321 3.46283C9.75768 3.88505 10.0687 4.37949 10.3465 4.94616C10.6243 5.51283 10.841 6.09061 10.9965 6.67949ZM7.14654 6.67949H10.5132C10.3243 6.01283 10.0939 5.41549 9.82188 4.88749C9.54941 4.35994 9.21874 3.87394 8.82988 3.42949C8.44101 3.87394 8.11034 4.35994 7.83788 4.88749C7.56588 5.41549 7.33544 6.01283 7.14654 6.67949ZM3.92988 6.67949H6.66321C6.81877 6.09061 7.03544 5.51283 7.31321 4.94616C7.59101 4.37949 7.90208 3.88505 8.24654 3.46283C7.24654 3.58505 6.37988 3.92105 5.64654 4.47083C4.91321 5.02105 4.34099 5.75727 3.92988 6.67949Z" fill="white"/>
</svg>
