<svg width="14" height="15" viewBox="0 0 14 15" fill="none" xmlns="http://www.w3.org/2000/svg">
<path fill-rule="evenodd" clip-rule="evenodd" d="M7 14.6602C10.866 14.6602 14 11.5262 14 7.66016C14 3.79417 10.866 0.660156 7 0.660156C3.13401 0.660156 0 3.79417 0 7.66016C0 11.5262 3.13401 14.6602 7 14.6602ZM6.09217 8.47417L9.20311 5.36326C9.44874 5.11773 9.84688 5.11773 10.0923 5.36326C10.338 5.6088 10.338 6.00689 10.0923 6.25242L6.62009 9.72464C6.59573 9.76299 6.56682 9.79928 6.53333 9.83272C6.28787 10.0784 5.88965 10.0784 5.64402 9.83272L3.7059 7.77047C3.46046 7.5248 3.46046 7.12685 3.7059 6.88118C3.95154 6.63564 4.34968 6.63564 4.59512 6.88118L6.09217 8.47417Z" fill="#6C6C85"/>
</svg>
