<svg width="66" height="66" viewBox="0 0 66 66" fill="none" xmlns="http://www.w3.org/2000/svg">
<path d="M0.205032 30.9266C0.126032 30.7826 0.0800323 30.6176 0.0800323 30.4416C0.0800323 30.2656 0.126032 30.1006 0.205032 29.9566V4.19465C0.205032 3.13465 0.627032 2.11665 1.37703 1.36665C2.12703 0.616648 3.14503 0.194648 4.20503 0.194648H41.083C41.186 0.159648 41.297 0.139648 41.412 0.139648C41.528 0.139648 41.638 0.159648 41.741 0.194648H60.205C62.415 0.194648 64.205 1.98565 64.205 4.19465V60.1946C64.205 62.4046 62.415 64.1946 60.205 64.1946H4.20503C3.14503 64.1946 2.12703 63.7736 1.37703 63.0236C0.627032 62.2736 0.205032 61.2556 0.205032 60.1946V30.9266ZM40.412 2.19465H4.20503C3.67503 2.19465 3.16603 2.40565 2.79103 2.78065C2.41603 3.15565 2.20503 3.66465 2.20503 4.19465V29.4416H40.412V2.19465ZM62.205 29.4416V4.19465C62.205 3.09065 61.31 2.19465 60.205 2.19465H42.412V29.4416H62.205ZM2.20503 31.4416V60.1946C2.20503 60.7256 2.41603 61.2346 2.79103 61.6096C3.16603 61.9846 3.67503 62.1946 4.20503 62.1946H21.412V31.4416H2.20503ZM23.412 62.1946H60.205C61.31 62.1946 62.205 61.2996 62.205 60.1946V31.4416H23.412V62.1946Z" fill="black"/>
</svg>
