<svg width="65" height="66" viewBox="0 0 65 66" fill="none" xmlns="http://www.w3.org/2000/svg">
<path d="M44.913 64.1396H4.98C3.919 64.1396 2.902 63.7186 2.152 62.9676C1.401 62.2176 0.979996 61.2006 0.979996 60.1396V4.13965C0.979996 3.07865 1.401 2.06165 2.152 1.31165C2.902 0.560649 3.919 0.139648 4.98 0.139648H60.98C63.189 0.139648 64.98 1.93065 64.98 4.13965V60.1396C64.98 62.3486 63.189 64.1396 60.98 64.1396H45.619C45.509 64.1816 45.39 64.2037 45.266 64.2037C45.142 64.2037 45.023 64.1816 44.913 64.1396ZM46.266 62.1396H60.98C62.085 62.1396 62.98 61.2446 62.98 60.1396V4.13965C62.98 3.03465 62.085 2.13965 60.98 2.13965H46.266V62.1396ZM44.266 2.13965H4.98C4.45 2.13965 3.941 2.35065 3.566 2.72565C3.191 3.10065 2.98 3.60965 2.98 4.13965V30.5656H44.266V2.13965ZM2.98 32.5656V60.1396C2.98 60.6696 3.191 61.1786 3.566 61.5536C3.941 61.9286 4.45 62.1396 4.98 62.1396H44.266V32.5656H2.98Z" fill="black"/>
</svg>
