<svg width="66" height="65" viewBox="0 0 66 65" fill="none" xmlns="http://www.w3.org/2000/svg">
<path d="M0.792983 17.3956C0.714983 17.2526 0.669983 17.0886 0.669983 16.9146C0.669983 16.7406 0.714983 16.5776 0.792983 16.4346V4.13965C0.792983 3.07865 1.21398 2.06165 1.96398 1.31165C2.71498 0.560649 3.73198 0.139648 4.79298 0.139648H60.793C63.002 0.139648 64.793 1.93065 64.793 4.13965V60.1396C64.793 62.3486 63.002 64.1396 60.793 64.1396H4.79298C3.73198 64.1396 2.71498 63.7186 1.96398 62.9676C1.21398 62.2176 0.792983 61.2006 0.792983 60.1396V33.0466C0.714983 32.9036 0.669983 32.7396 0.669983 32.5656C0.669983 32.3916 0.714983 32.2286 0.792983 32.0856V17.3956ZM2.79298 33.5656V60.1396C2.79298 60.6696 3.00398 61.1786 3.37898 61.5536C3.75398 61.9286 4.26198 62.1396 4.79298 62.1396H23.795V33.5656H2.79298ZM25.795 62.1396H60.793C61.897 62.1396 62.793 61.2446 62.793 60.1396V33.5656H25.795V62.1396ZM62.793 31.5656V4.13965C62.793 3.03465 61.897 2.13965 60.793 2.13965H45.795V31.5656H62.793ZM43.795 2.13965H4.79298C4.26198 2.13965 3.75398 2.35065 3.37898 2.72565C3.00398 3.10065 2.79298 3.60965 2.79298 4.13965V15.9146H43.795V2.13965ZM2.79298 17.9146V31.5656H43.795V17.9146H2.79298Z" fill="black"/>
</svg>
