<svg width="65" height="65" viewBox="0 0 65 65" fill="none" xmlns="http://www.w3.org/2000/svg">
<path d="M64.8 4.13965V60.1396C64.8 62.3486 63.009 64.1396 60.8 64.1396H4.79999C3.73899 64.1396 2.72199 63.7186 1.97199 62.9676C1.22099 62.2176 0.799988 61.2006 0.799988 60.1396V4.13965C0.799988 3.07865 1.22099 2.06165 1.97199 1.31165C2.72199 0.560649 3.73899 0.139648 4.79999 0.139648H60.8C63.009 0.139648 64.8 1.93065 64.8 4.13965ZM62.8 4.13965C62.8 3.03465 61.905 2.13965 60.8 2.13965H4.79999C4.26999 2.13965 3.76099 2.35065 3.38599 2.72565C3.01099 3.10065 2.79999 3.60965 2.79999 4.13965V60.1396C2.79999 60.6696 3.01099 61.1786 3.38599 61.5536C3.76099 61.9286 4.26999 62.1396 4.79999 62.1396H60.8C61.905 62.1396 62.8 61.2446 62.8 60.1396V4.13965Z" fill="black"/>
</svg>
