<svg width="65" height="65" viewBox="0 0 65 65" fill="none" xmlns="http://www.w3.org/2000/svg">
<path d="M0.389954 60.1396V4.13965C0.389954 3.07865 0.810954 2.06165 1.56195 1.31165C2.31195 0.560649 3.32895 0.139648 4.38995 0.139648H60.39C62.599 0.139648 64.39 1.93065 64.39 4.13965V60.1396C64.39 62.3486 62.599 64.1396 60.39 64.1396H4.38995C3.32895 64.1396 2.31195 63.7186 1.56195 62.9676C0.810954 62.2176 0.389954 61.2006 0.389954 60.1396ZM62.39 30.2636V4.13965C62.39 3.03465 61.495 2.13965 60.39 2.13965H4.38995C3.85995 2.13965 3.35095 2.35065 2.97595 2.72565C2.60095 3.10065 2.38995 3.60965 2.38995 4.13965V30.2636H62.39ZM2.38995 32.2636V60.1396C2.38995 60.6696 2.60095 61.1786 2.97595 61.5536C3.35095 61.9286 3.85995 62.1396 4.38995 62.1396H60.39C61.495 62.1396 62.39 61.2446 62.39 60.1396V32.2636H2.38995Z" fill="black"/>
</svg>
