<svg width="21" height="21" viewBox="0 0 21 21" fill="none" xmlns="http://www.w3.org/2000/svg">
<path d="M17.1284 17.9317C15.5034 17.9317 13.8959 17.5498 12.3059 16.7858C10.7153 16.0219 9.29505 15.015 8.04504 13.765C6.79504 12.515 5.78477 11.0948 5.01421 9.50417C4.2431 7.91417 3.85754 6.30667 3.85754 4.68167V4.24417C3.85754 4.0914 3.87144 3.94556 3.89921 3.80667H8.17004L8.89921 7.59834L6.58671 9.84834C7.25338 10.9594 8.04144 11.9664 8.95088 12.8692C9.86089 13.7719 10.8923 14.5567 12.0451 15.2233L14.3576 12.89L17.9826 13.6192V17.8692C17.8576 17.8969 17.7151 17.9144 17.5551 17.9217C17.3956 17.9283 17.2534 17.9317 17.1284 17.9317ZM6.00338 8.66084L7.56588 7.18167L7.12838 5.05667H5.12838C5.14227 5.66778 5.22921 6.2789 5.38921 6.89C5.54866 7.50111 5.75338 8.0914 6.00338 8.66084ZM13.2117 15.8067C13.7395 16.0567 14.3195 16.2581 14.9517 16.4108C15.5834 16.5636 16.177 16.64 16.7326 16.64V14.64L14.7534 14.2442L13.2117 15.8067Z" fill="black"/>
</svg>
